<svg xmlns="http://www.w3.org/2000/svg" xmlns:xlink="http://www.w3.org/1999/xlink" width="40px" height="40px">
                <path fill-rule="evenodd"  fill="rgb(255, 255, 255)" d="M39.311,25.196 C39.310,25.202 39.311,25.207 39.309,25.213 C39.297,25.260 39.280,25.305 39.267,25.353 C39.183,25.652 39.094,25.948 38.997,26.241 C38.957,26.365 38.915,26.487 38.873,26.609 C38.796,26.827 38.715,27.043 38.631,27.257 C38.569,27.418 38.507,27.581 38.441,27.740 C38.400,27.834 38.357,27.926 38.316,28.019 C36.340,32.550 32.763,36.179 28.233,38.220 C28.020,38.316 27.806,38.410 27.589,38.500 C27.472,38.548 27.354,38.593 27.236,38.640 C26.961,38.746 26.684,38.847 26.404,38.942 C26.352,38.959 26.302,38.980 26.251,38.997 C26.243,39.000 26.236,38.998 26.229,39.001 C24.268,39.646 22.174,39.999 20.000,39.999 C17.917,39.999 15.907,39.678 14.018,39.085 C14.011,39.083 14.005,39.084 13.998,39.081 C13.872,39.042 13.751,38.994 13.625,38.952 C13.425,38.884 13.224,38.816 13.026,38.742 C12.820,38.665 12.617,38.584 12.415,38.501 C12.301,38.454 12.187,38.407 12.073,38.357 C11.826,38.251 11.583,38.141 11.341,38.026 C11.337,38.023 11.331,38.020 11.327,38.019 C7.535,36.199 4.440,33.244 2.445,29.573 C2.425,29.536 2.404,29.498 2.385,29.460 C2.255,29.218 2.129,28.975 2.009,28.728 C1.943,28.592 1.882,28.454 1.819,28.318 C1.739,28.141 1.655,27.966 1.579,27.786 C1.434,27.445 1.301,27.098 1.175,26.748 C1.151,26.682 1.130,26.614 1.107,26.547 C0.996,26.230 0.895,25.910 0.800,25.586 C0.791,25.554 0.778,25.523 0.769,25.491 C0.767,25.484 0.769,25.477 0.767,25.469 C0.271,23.729 -0.000,21.896 -0.000,19.999 C-0.000,8.971 8.972,-0.001 20.000,-0.001 C31.028,-0.001 40.000,8.971 40.000,19.999 C40.000,21.797 39.758,23.539 39.311,25.196 ZM36.129,29.380 C36.372,28.962 36.605,28.536 36.817,28.098 C36.828,28.075 36.838,28.052 36.849,28.029 C37.001,27.711 37.142,27.387 37.277,27.059 C37.366,26.840 37.457,26.620 37.538,26.396 C37.572,26.303 37.601,26.208 37.633,26.114 C37.717,25.869 37.800,25.624 37.875,25.374 C37.884,25.341 37.893,25.309 37.902,25.276 C36.373,24.086 34.519,23.475 32.653,23.475 C31.407,23.475 30.163,23.765 29.002,24.318 L31.100,27.953 C32.897,27.256 34.961,27.835 36.129,29.380 ZM27.842,24.976 C25.147,26.825 23.808,30.008 24.214,33.115 L28.333,32.239 C28.261,30.870 28.839,29.509 29.945,28.620 L27.842,24.976 ZM31.431,34.740 C31.539,34.656 31.648,34.573 31.755,34.486 C31.869,34.393 31.981,34.297 32.092,34.202 C32.393,33.946 32.685,33.681 32.968,33.407 C33.071,33.307 33.174,33.208 33.274,33.107 C33.440,32.940 33.603,32.770 33.762,32.596 C33.890,32.455 34.016,32.309 34.141,32.164 C34.347,31.924 34.548,31.679 34.743,31.429 C34.873,31.260 35.002,31.091 35.127,30.917 C35.199,30.817 35.271,30.718 35.341,30.617 C35.319,30.573 35.297,30.532 35.274,30.492 C34.717,29.528 33.703,28.988 32.661,28.988 C32.151,28.988 31.634,29.118 31.160,29.391 C29.723,30.221 29.229,32.066 30.059,33.505 C30.375,34.054 30.855,34.481 31.431,34.740 ZM26.238,37.590 C26.254,37.584 26.270,37.579 26.286,37.573 C26.615,37.457 26.939,37.332 27.258,37.197 C27.375,37.147 27.489,37.092 27.604,37.040 C27.781,36.962 27.957,36.883 28.129,36.800 C28.351,36.692 28.571,36.578 28.788,36.462 C28.837,36.436 28.885,36.411 28.935,36.384 C29.387,36.137 29.826,35.869 30.254,35.586 C29.709,35.221 29.239,34.749 28.905,34.170 C28.787,33.967 28.693,33.756 28.612,33.542 L24.498,34.417 C24.685,35.049 24.938,35.669 25.281,36.263 C25.547,36.722 25.867,37.167 26.238,37.590 ZM13.369,37.446 C13.488,37.490 13.605,37.535 13.725,37.578 C13.811,37.609 13.897,37.636 13.983,37.664 C14.305,37.264 14.582,36.838 14.822,36.396 L10.979,34.686 C10.722,35.087 10.395,35.448 10.004,35.753 C11.060,36.424 12.185,36.994 13.369,37.446 ZM15.863,32.330 C15.863,30.869 15.487,29.399 14.719,28.069 C14.376,27.473 13.966,26.944 13.513,26.466 L10.698,29.592 C10.843,29.769 10.978,29.956 11.096,30.161 C11.697,31.202 11.817,32.392 11.524,33.469 L15.366,35.179 C15.692,34.264 15.862,33.303 15.863,32.336 C15.863,32.335 15.862,32.333 15.862,32.333 L15.863,32.330 ZM12.525,25.570 C10.038,23.665 6.612,23.233 3.663,24.642 L5.767,28.285 C7.090,27.773 8.557,27.950 9.707,28.699 L12.525,25.570 ZM4.964,31.045 C5.087,31.213 5.215,31.376 5.344,31.540 C5.545,31.793 5.751,32.042 5.964,32.285 C6.093,32.433 6.223,32.578 6.357,32.721 C6.498,32.872 6.639,33.022 6.784,33.168 C7.025,33.411 7.274,33.646 7.529,33.874 C7.654,33.987 7.783,34.096 7.911,34.206 C8.155,34.413 8.403,34.616 8.659,34.812 C8.716,34.856 8.772,34.902 8.830,34.946 C8.833,34.944 8.836,34.943 8.839,34.941 C10.277,34.110 10.771,32.264 9.941,30.827 C9.111,29.389 7.265,28.893 5.827,29.724 C5.388,29.978 5.026,30.334 4.765,30.766 C4.831,30.859 4.896,30.953 4.964,31.045 ZM2.516,26.532 C2.555,26.634 2.596,26.735 2.636,26.836 C2.713,27.032 2.792,27.225 2.875,27.417 C2.950,27.592 3.029,27.765 3.109,27.936 C3.155,28.032 3.201,28.128 3.248,28.224 C3.477,28.687 3.723,29.140 3.987,29.581 C4.175,29.351 4.378,29.135 4.610,28.949 L2.509,25.309 C2.398,25.386 2.289,25.462 2.178,25.546 C2.281,25.880 2.395,26.208 2.516,26.532 ZM20.000,1.333 C9.707,1.333 1.333,9.706 1.333,19.999 C1.333,21.434 1.501,22.829 1.810,24.173 C2.006,24.038 2.203,23.907 2.403,23.792 C3.751,23.013 5.209,22.603 6.667,22.506 L6.667,21.666 C6.667,21.297 6.965,20.999 7.333,20.999 C7.701,20.999 8.000,21.297 8.000,21.666 L8.000,22.498 C9.275,22.586 10.525,22.921 11.673,23.483 L12.089,22.763 C12.273,22.443 12.680,22.334 13.000,22.518 C13.318,22.702 13.428,23.110 13.244,23.429 L12.824,24.156 C13.201,24.409 13.565,24.684 13.908,24.991 C13.915,24.997 13.925,24.997 13.932,25.004 C13.937,25.009 13.939,25.015 13.943,25.020 C14.530,25.550 15.055,26.161 15.511,26.842 L16.237,26.423 C16.555,26.238 16.963,26.347 17.148,26.666 C17.332,26.985 17.223,27.393 16.904,27.577 L16.185,27.993 C16.760,29.163 17.086,30.410 17.171,31.666 L18.000,31.666 C18.368,31.666 18.667,31.964 18.667,32.333 C18.667,32.701 18.368,32.999 18.000,32.999 L17.167,32.999 C17.089,34.142 16.817,35.269 16.346,36.328 C16.344,36.333 16.345,36.339 16.343,36.345 C16.338,36.355 16.330,36.362 16.325,36.373 C16.057,36.966 15.726,37.536 15.337,38.076 C16.829,38.461 18.390,38.665 20.000,38.665 C21.685,38.665 23.316,38.437 24.869,38.017 C24.595,37.664 24.340,37.302 24.125,36.929 C23.598,36.015 23.238,35.049 23.028,34.068 C23.026,34.062 23.021,34.056 23.020,34.049 C23.018,34.040 23.021,34.032 23.020,34.022 C22.926,33.571 22.869,33.118 22.839,32.664 L22.000,32.664 C21.632,32.664 21.333,32.366 21.333,31.998 C21.333,31.630 21.632,31.331 22.000,31.331 L22.831,31.331 C22.919,30.056 23.254,28.807 23.815,27.658 L23.096,27.242 C22.777,27.058 22.668,26.651 22.852,26.332 C23.037,26.012 23.442,25.903 23.763,26.088 L24.489,26.508 C25.185,25.469 26.085,24.552 27.175,23.821 L26.756,23.094 C26.572,22.776 26.681,22.368 27.000,22.183 C27.319,21.999 27.727,22.109 27.911,22.428 L28.326,23.147 C29.495,22.575 30.743,22.250 32.000,22.167 L32.000,21.333 C32.000,20.964 32.298,20.666 32.667,20.666 C33.035,20.666 33.333,20.964 33.333,21.333 L33.333,22.172 C35.073,22.293 36.776,22.871 38.255,23.891 C38.523,22.635 38.667,21.334 38.667,19.999 C38.667,9.706 30.293,1.333 20.000,1.333 ZM35.628,15.835 L34.113,16.241 C34.336,17.272 34.454,18.327 34.449,19.392 C34.447,19.759 34.149,20.055 33.782,20.055 C33.781,20.055 33.779,20.055 33.779,20.055 C33.411,20.053 33.113,19.753 33.115,19.385 C33.127,17.057 32.523,14.769 31.369,12.770 C30.897,11.952 30.347,11.209 29.739,10.536 L24.683,15.592 C24.869,15.826 25.044,16.070 25.196,16.333 C25.997,17.721 26.210,19.338 25.794,20.885 C25.380,22.433 24.387,23.727 22.998,24.528 C22.073,25.062 21.047,25.334 20.008,25.335 C19.486,25.335 18.962,25.265 18.445,25.127 C16.898,24.713 15.604,23.720 14.803,22.331 C14.002,20.944 13.789,19.327 14.204,17.780 C14.422,16.967 14.803,16.227 15.312,15.588 L10.266,10.542 C8.117,12.933 6.872,16.077 6.882,19.387 C6.883,19.754 6.585,20.054 6.217,20.055 C6.217,20.055 6.216,20.055 6.215,20.055 C5.848,20.055 5.549,19.758 5.549,19.390 C5.545,18.320 5.667,17.266 5.893,16.243 L4.372,15.835 C4.016,15.740 3.805,15.374 3.901,15.019 C3.996,14.663 4.363,14.450 4.717,14.547 L6.238,14.955 C6.487,14.176 6.800,13.420 7.173,12.697 L5.810,11.909 C5.491,11.726 5.382,11.319 5.566,10.999 C5.750,10.680 6.157,10.571 6.477,10.755 L7.839,11.542 C8.277,10.854 8.774,10.206 9.324,9.599 L8.215,8.490 C7.954,8.229 7.954,7.809 8.215,7.547 C8.475,7.286 8.896,7.286 9.157,7.547 L10.264,8.654 C10.863,8.106 11.511,7.607 12.204,7.162 L11.423,5.809 C11.239,5.491 11.347,5.083 11.667,4.899 C11.985,4.714 12.393,4.823 12.577,5.143 L13.363,6.506 C14.100,6.125 14.851,5.803 15.618,5.559 L15.215,4.050 C15.119,3.694 15.331,3.329 15.686,3.234 C16.044,3.136 16.407,3.350 16.503,3.705 L16.906,5.211 C17.711,5.035 18.522,4.937 19.333,4.901 L19.333,3.333 C19.333,2.964 19.632,2.666 20.000,2.666 C20.368,2.666 20.666,2.964 20.666,3.333 L20.666,4.905 C21.484,4.944 22.292,5.055 23.088,5.231 L23.496,3.705 C23.592,3.350 23.955,3.136 24.313,3.234 C24.668,3.329 24.880,3.695 24.785,4.050 L24.376,5.576 C25.153,5.823 25.909,6.130 26.637,6.504 L27.423,5.143 C27.606,4.824 28.014,4.714 28.333,4.899 C28.653,5.083 28.761,5.490 28.577,5.809 L27.793,7.167 C28.478,7.604 29.132,8.095 29.741,8.649 L30.843,7.547 C31.103,7.286 31.525,7.286 31.785,7.547 C32.046,7.809 32.046,8.229 31.785,8.490 L30.681,9.595 C31.223,10.189 31.713,10.845 32.160,11.542 L33.523,10.755 C33.841,10.569 34.250,10.679 34.434,10.998 C34.618,11.317 34.509,11.725 34.190,11.909 L32.837,12.691 C33.212,13.418 33.524,14.174 33.770,14.952 L35.283,14.547 C35.638,14.450 36.004,14.663 36.099,15.019 C36.195,15.375 35.984,15.740 35.628,15.835 ZM15.959,21.665 C16.582,22.744 17.588,23.517 18.792,23.839 C19.997,24.165 21.253,23.997 22.333,23.373 C23.412,22.750 24.184,21.744 24.507,20.541 C24.829,19.337 24.664,18.079 24.041,17.000 C23.417,15.921 22.411,15.148 21.207,14.826 C20.805,14.718 20.397,14.664 19.992,14.664 C19.183,14.664 18.386,14.876 17.667,15.292 C16.587,15.915 15.815,16.920 15.493,18.124 C15.170,19.328 15.335,20.586 15.959,21.665 ZM13.437,7.964 C12.628,8.431 11.885,8.982 11.207,9.597 L16.259,14.648 C16.493,14.464 16.737,14.289 17.000,14.137 C18.389,13.335 20.004,13.125 21.553,13.537 C22.365,13.755 23.105,14.136 23.743,14.646 L28.795,9.595 C24.682,5.886 18.485,5.050 13.437,7.964 Z"/>
                </svg>