<?xml version="1.0" encoding="utf-8"?>
<!-- Generator: Adobe Illustrator 23.1.0, SVG Export Plug-In . SVG Version: 6.00 Build 0)  -->
<svg version="1.1" id="Слой_1" xmlns="http://www.w3.org/2000/svg" xmlns:xlink="http://www.w3.org/1999/xlink" x="0px" y="0px"
	 viewBox="0 0 612 792" style="enable-background:new 0 0 612 792;" xml:space="preserve">
<style type="text/css">
	.st0{fill:#190A0B;}
</style>
<g>
	<path d="M170.94,379.21v-18.46h3.56v7.44h1.82l5.49-7.44h4l-6.71,8.94l7.23,9.52h-4.34l-5.72-7.77h-1.77v7.77H170.94z"/>
	<path d="M204.29,360.75v18.46h-3.56v-7.88h-8.37v7.88h-3.59v-18.46h3.59v7.46h8.37v-7.46H204.29z"/>
	<path d="M208.19,379.21v-18.46h14.95v18.46h-3.56V363.9h-7.83v15.31H208.19z"/>
	<path d="M248.34,379.21V367.1l-4.73,9.02h-2l-4.73-9.02v12.12h-3.59v-18.46h3.85l5.46,10.5l5.51-10.5h3.82v18.46H248.34z"/>
	<path d="M270.83,379.21V367.1l-4.73,9.02h-2l-4.73-9.02v12.12h-3.59v-18.46h3.85l5.46,10.5l5.51-10.5h3.82v18.46H270.83z"/>
	<path d="M278.26,379.21v-18.46h7.83c0.85,0,1.63,0.17,2.34,0.52c0.71,0.35,1.33,0.81,1.86,1.4c0.53,0.59,0.94,1.25,1.23,1.98
		c0.29,0.73,0.44,1.47,0.44,2.24c0,1.04-0.24,2.03-0.73,2.96s-1.15,1.7-2,2.29c-0.85,0.59-1.85,0.88-3.02,0.88h-4.37v6.19H278.26z
		 M281.85,369.88h4.16c0.43,0,0.82-0.12,1.17-0.36c0.35-0.24,0.62-0.59,0.83-1.05c0.21-0.46,0.31-0.98,0.31-1.57
		c0-0.64-0.12-1.19-0.35-1.64c-0.23-0.45-0.54-0.79-0.91-1.01c-0.37-0.23-0.78-0.34-1.21-0.34h-4V369.88z"/>
	<path d="M299.95,366.24v-5.82h2.96v5.82H299.95z M304.03,366.24v-5.82h2.96v5.82H304.03z"/>
	<path d="M324.26,382.72v-3.51H310.5v-18.46h3.59v15.31h7.31v-15.31h3.56v15.31h2.44v6.66H324.26z"/>
	<path d="M330.21,379.21v-18.46h14.95v18.46h-3.56V363.9h-7.83v15.31H330.21z"/>
	<path d="M364.11,379.21V367.1l-4.73,9.02h-2l-4.73-9.02v12.12h-3.59v-18.46h3.85l5.46,10.5l5.51-10.5h3.82v18.46H364.11z"/>
	<path d="M370.43,369.83c0-1.13,0.2-2.23,0.61-3.31c0.41-1.08,1-2.07,1.78-2.96c0.78-0.89,1.73-1.6,2.86-2.13
		c1.13-0.53,2.41-0.79,3.85-0.79c1.7,0,3.17,0.37,4.41,1.12c1.24,0.75,2.16,1.72,2.77,2.91l-2.76,1.9
		c-0.31-0.69-0.72-1.24-1.22-1.65c-0.5-0.41-1.04-0.69-1.61-0.86c-0.57-0.16-1.14-0.25-1.69-0.25c-0.9,0-1.69,0.18-2.35,0.55
		c-0.67,0.36-1.23,0.84-1.68,1.43s-0.78,1.25-1,1.98c-0.22,0.73-0.33,1.46-0.33,2.18c0,0.81,0.13,1.6,0.39,2.35
		c0.26,0.75,0.63,1.42,1.1,2c0.48,0.58,1.05,1.04,1.72,1.38c0.67,0.34,1.4,0.51,2.2,0.51c0.57,0,1.15-0.1,1.74-0.29
		c0.59-0.19,1.14-0.49,1.64-0.91c0.5-0.42,0.89-0.95,1.17-1.61l2.94,1.69c-0.36,0.92-0.96,1.7-1.78,2.34s-1.75,1.13-2.77,1.46
		c-1.02,0.33-2.04,0.49-3.04,0.49c-1.32,0-2.52-0.27-3.61-0.82c-1.09-0.55-2.03-1.27-2.82-2.18c-0.79-0.91-1.4-1.93-1.85-3.07
		C370.65,372.14,370.43,370.99,370.43,369.83z"/>
	<path d="M388.16,382.75v-6.68h0.99c0.47,0,0.88-0.18,1.22-0.55c0.35-0.36,0.64-0.94,0.88-1.74c0.24-0.8,0.44-1.83,0.58-3.11
		s0.25-2.82,0.3-4.64l0.16-5.28h12.3v15.31h2.44v6.68h-3.15v-3.54h-12.58v3.54H388.16z M393.44,376.07h7.59V363.9h-5.49l-0.05,2.6
		c-0.05,1.8-0.15,3.34-0.3,4.6c-0.15,1.27-0.36,2.31-0.62,3.12C394.3,375.03,393.93,375.65,393.44,376.07z"/>
	<path d="M419.86,367.38v11.83h-3.56v-18.46h2.78l9.62,12.12v-12.09h3.56v18.43h-2.89L419.86,367.38z M439.02,370.4
		c-1.02,0-1.89-0.23-2.61-0.68c-0.72-0.45-1.27-1.05-1.66-1.79c-0.39-0.75-0.59-1.54-0.59-2.39c0-0.87,0.2-1.67,0.59-2.41
		c0.39-0.74,0.95-1.33,1.68-1.78c0.73-0.45,1.59-0.68,2.6-0.68s1.87,0.23,2.59,0.68c0.72,0.45,1.27,1.04,1.66,1.78
		c0.39,0.74,0.58,1.54,0.58,2.41c0,0.85-0.19,1.65-0.57,2.39c-0.38,0.75-0.94,1.34-1.66,1.79
		C440.89,370.17,440.02,370.4,439.02,370.4z M436.76,365.56c0,0.5,0.1,0.96,0.3,1.36c0.2,0.41,0.47,0.72,0.81,0.95
		c0.34,0.23,0.72,0.34,1.16,0.34c0.42,0,0.79-0.12,1.13-0.35s0.61-0.55,0.81-0.96c0.2-0.41,0.3-0.86,0.3-1.36c0-0.54-0.1-1-0.3-1.39
		c-0.2-0.39-0.47-0.7-0.81-0.92c-0.34-0.22-0.71-0.34-1.13-0.34s-0.8,0.11-1.14,0.34c-0.35,0.23-0.62,0.54-0.82,0.95
		C436.86,364.58,436.76,365.04,436.76,365.56z"/>
	<path d="M445.16,379.21c0-0.79,0.06-1.5,0.18-2.13s0.33-1.22,0.64-1.76c0.3-0.54,0.72-1.06,1.25-1.54c0.53-0.48,1.2-0.95,2.02-1.41
		c0.71-0.39,1.33-0.72,1.87-1.01c0.54-0.29,0.99-0.56,1.36-0.8s0.65-0.5,0.85-0.75c0.19-0.25,0.29-0.55,0.29-0.88
		c0-0.36-0.1-0.68-0.29-0.98c-0.19-0.29-0.46-0.53-0.81-0.71s-0.78-0.27-1.3-0.27c-0.42,0-0.8,0.05-1.16,0.16s-0.68,0.25-0.99,0.44
		c-0.3,0.19-0.58,0.4-0.85,0.64c-0.26,0.23-0.49,0.48-0.7,0.74l-2.21-2.55c0.24-0.24,0.57-0.51,0.98-0.79
		c0.41-0.29,0.89-0.55,1.46-0.81c0.56-0.25,1.19-0.46,1.87-0.62c0.68-0.16,1.42-0.25,2.2-0.25c1.18,0,2.18,0.19,3.02,0.57
		s1.47,0.9,1.91,1.57c0.44,0.67,0.66,1.45,0.66,2.34c0,0.62-0.11,1.16-0.34,1.64c-0.23,0.48-0.51,0.89-0.86,1.26
		c-0.35,0.36-0.72,0.68-1.13,0.97c-0.41,0.28-0.8,0.53-1.18,0.74c-0.54,0.28-1.02,0.54-1.46,0.78c-0.43,0.24-0.81,0.48-1.14,0.71
		c-0.33,0.24-0.62,0.48-0.87,0.73c-0.25,0.25-0.47,0.53-0.66,0.85h7.93v3.15H445.16z"/>
	<path d="M460.42,366.24v-5.82h2.96v5.82H460.42z M464.5,366.24v-5.82h2.96v5.82H464.5z"/>
	<path d="M244.83,410.41v-13.49h3.64l4.26,7.8l4.29-7.8h3.59v13.49h-3.3v-8.73l-3.48,6.34h-2.18l-3.51-6.34v8.73H244.83z"/>
	<path d="M263.73,410.41v-3.74h2.86v3.74H263.73z"/>
	<path d="M285.05,410.41V398.3l-4.73,9.02h-2l-4.73-9.02v12.12H270v-18.46h3.85l5.46,10.5l5.51-10.5h3.82v18.46H285.05z"/>
	<path d="M292.15,410.41v-13.47h3.48v8.86l6.11-8.88h3.17v13.49h-3.48v-8.65l-6.03,8.65H292.15z"/>
	<path d="M308.09,410.41v-13.49h3.48v5.07h1.17l3.69-5.07h3.8l-4.84,6.5l5.36,6.99h-3.98l-4.08-5.36h-1.12v5.36H308.09z"/>
	<path d="M328.5,410.67c-1.11,0-2.11-0.18-2.99-0.55c-0.88-0.37-1.63-0.88-2.25-1.53c-0.62-0.65-1.09-1.4-1.42-2.24
		c-0.33-0.84-0.49-1.72-0.49-2.65c0-0.94,0.16-1.83,0.49-2.67c0.33-0.84,0.8-1.59,1.42-2.24c0.61-0.65,1.36-1.16,2.25-1.53
		c0.88-0.37,1.88-0.55,2.99-0.55s2.1,0.18,2.98,0.55c0.88,0.37,1.63,0.88,2.25,1.53s1.1,1.4,1.42,2.24
		c0.32,0.84,0.48,1.73,0.48,2.67c0,0.93-0.16,1.81-0.48,2.65c-0.32,0.84-0.79,1.59-1.4,2.24c-0.62,0.65-1.37,1.16-2.25,1.53
		C330.6,410.49,329.61,410.67,328.5,410.67z M324.93,403.7c0,0.78,0.16,1.47,0.47,2.08s0.74,1.08,1.27,1.42
		c0.54,0.34,1.14,0.51,1.82,0.51c0.66,0,1.26-0.17,1.79-0.52s0.97-0.82,1.29-1.43c0.32-0.6,0.48-1.3,0.48-2.08
		c0-0.77-0.16-1.45-0.48-2.07c-0.32-0.61-0.75-1.09-1.29-1.43c-0.54-0.34-1.14-0.51-1.79-0.51c-0.68,0-1.28,0.17-1.82,0.52
		c-0.54,0.35-0.96,0.82-1.27,1.43C325.09,402.23,324.93,402.92,324.93,403.7z"/>
	<path d="M336.97,410.41v-3.09c0.42-0.02,0.79-0.12,1.12-0.3s0.62-0.5,0.87-0.95c0.25-0.45,0.45-1.07,0.6-1.88
		c0.15-0.81,0.25-1.84,0.3-3.11l0.18-4.17h10.22v13.31h-3.48v-10.27h-3.67l-0.05,1.54c-0.07,1.73-0.24,3.17-0.52,4.32
		c-0.28,1.14-0.66,2.05-1.16,2.71c-0.49,0.67-1.1,1.14-1.83,1.43S337.96,410.4,336.97,410.41z"/>
	<path d="M352.49,406.43c0-0.87,0.25-1.64,0.74-2.3c0.49-0.66,1.18-1.17,2.07-1.53c0.88-0.36,1.9-0.54,3.04-0.54
		c0.57,0,1.15,0.04,1.74,0.13c0.59,0.09,1.1,0.23,1.53,0.42v-0.73c0-0.85-0.26-1.51-0.77-1.97c-0.51-0.46-1.27-0.69-2.27-0.69
		c-0.75,0-1.46,0.13-2.13,0.39c-0.68,0.26-1.39,0.64-2.13,1.14l-1.12-2.29c0.9-0.59,1.82-1.03,2.77-1.33
		c0.94-0.29,1.94-0.44,2.98-0.44c1.94,0,3.45,0.48,4.54,1.44c1.08,0.96,1.63,2.32,1.63,4.1v4.28c0,0.36,0.07,0.62,0.2,0.77
		c0.13,0.15,0.34,0.25,0.64,0.28v2.83c-0.31,0.05-0.59,0.09-0.84,0.13c-0.25,0.03-0.46,0.05-0.64,0.05c-0.69,0-1.22-0.16-1.57-0.47
		c-0.36-0.31-0.58-0.69-0.66-1.14l-0.08-0.7c-0.59,0.76-1.33,1.35-2.21,1.77c-0.88,0.42-1.79,0.62-2.7,0.62
		c-0.9,0-1.71-0.18-2.43-0.55c-0.72-0.37-1.28-0.87-1.69-1.52C352.7,407.96,352.49,407.24,352.49,406.43z M360.97,407.11
		c0.19-0.2,0.35-0.41,0.47-0.61c0.12-0.2,0.18-0.39,0.18-0.56v-1.34c-0.42-0.17-0.87-0.3-1.35-0.39c-0.49-0.09-0.94-0.14-1.38-0.14
		c-0.9,0-1.64,0.19-2.22,0.57c-0.58,0.38-0.87,0.88-0.87,1.51c0,0.34,0.09,0.66,0.29,0.96s0.47,0.55,0.83,0.74
		c0.36,0.19,0.8,0.28,1.3,0.28c0.52,0,1.03-0.1,1.53-0.29S360.66,407.4,360.97,407.11z"/>
	<path d="M366.14,394.68v-3.09h2.89v3.09H366.14z M368.35,410.41v-13.49h3.48v13.49H368.35z M371.14,394.68v-3.09h2.89v3.09H371.14z
		"/>
	<path d="M374.98,410.41v-13.49h7.59c0.94,0,1.7,0.15,2.28,0.46c0.58,0.31,1.01,0.71,1.29,1.21s0.42,1.03,0.42,1.59
		c0,0.75-0.17,1.41-0.51,1.98c-0.34,0.57-0.86,1-1.57,1.31c0.8,0.22,1.45,0.61,1.95,1.15c0.5,0.54,0.75,1.25,0.75,2.13
		c0,0.84-0.2,1.54-0.6,2.08s-0.97,0.94-1.71,1.2c-0.75,0.26-1.63,0.39-2.65,0.39H374.98z M378.29,402.51h3.41
		c0.31,0,0.59-0.08,0.83-0.23c0.24-0.15,0.43-0.36,0.56-0.61s0.2-0.53,0.2-0.84c0-0.44-0.14-0.81-0.43-1.1
		c-0.29-0.3-0.66-0.44-1.13-0.44h-3.43V402.51z M378.29,408.05h3.82c0.31,0,0.6-0.08,0.86-0.23c0.26-0.15,0.46-0.36,0.61-0.61
		c0.15-0.26,0.22-0.54,0.22-0.84c0-0.32-0.07-0.61-0.21-0.86c-0.14-0.25-0.33-0.44-0.59-0.59c-0.25-0.15-0.54-0.22-0.87-0.22h-3.85
		V408.05z"/>
</g>
<g id="Snake">
	<g id="Cup_x5F_bottom">
		<path class="st0" d="M68.44,442.03c1.36-0.21,2.4-0.76,2.6-1.46c0.04-0.14,0.06-0.31,0-0.52h10.85c0.76-0.02,7.52-0.26,7.98-1.92
			c0.03-0.12,0.03-0.24,0-0.38h21.34c-0.04,0.14-0.03,0.27,0,0.38c0.47,1.65,7.08,1.9,7.8,1.92h10.76c-0.06,0.21-0.04,0.38,0,0.52
			c0.21,0.71,1.28,1.26,2.69,1.46v0.96H68.44V442.03z"/>
	</g>
	<g id="cup_x5F_middle">
		<polygon class="st0" points="97.19,406.74 97.19,431.96 102.98,431.96 102.98,404.44 		"/>
	</g>
	<g id="upper_x5F_cup">
		<path class="st0" d="M156.19,366.51c0,0.36,0,0.75-0.05,1.11c-0.06,0.35-0.11,0.71-0.23,1.11c-0.05,0.24-0.16,0.48-0.22,0.72
			c-3,8.56-19.06,15.53-40.13,17.75h-0.05c-2.56,0.63-4.78,1.34-6.9,2.73c-1.16,0.75-2.95,2.14-4.22,4.4
			c-2.78,0.91-5.5,1.78-8.23,2.69c-0.11-0.75-0.33-1.82-0.95-3.05c-0.44-1.03-1.05-2.38-2.66-3.73c-1.56-1.26-3.23-1.9-4.23-2.3
			c-1.28-0.52-2.45-0.75-3.61-0.95c-0.06-0.04-0.11-0.04-0.17-0.04c-0.39-0.04-0.72-0.08-1.11-0.16
			c-16.18-2.1-28.96-7.09-34.46-13.35c-1.89-2.18-2.95-4.48-2.95-6.94v-0.44h110.11C156.19,366.19,156.19,366.35,156.19,366.51z"/>
		<path class="st0" d="M156.14,367.62v0.2c-0.06,0.31-0.11,0.59-0.23,0.91C156.03,368.33,156.08,367.98,156.14,367.62z"/>
		<path class="st0" d="M156.19,366.07v0.44c0-0.16,0-0.32-0.05-0.44H156.19z"/>
	</g>
	<g id="snake_x5F_bottom">
		<path class="st0" d="M94.98,415.88c0,1.49,0,2.98,0,4.47c-0.48-0.03-1.16-0.06-1.97,0c-3.18,0.22-7.95,1.63-8.87,4.47
			c-0.78,2.38,1.58,4.47,2.15,4.99c3.35,2.98,8.73,2.95,9.5,2.94c3.61,0.37,8.46,0.57,14.07,0c8.7-0.89,15.23-3.24,19.09-4.92
			l3.14-0.83c-0.14,0.45-0.39,1.09-0.9,1.79c-0.76,1.04-1.87,1.91-7.62,4.35c-4.91,2.08-6.57,2.5-7.35,2.68
			c-1.91,0.45-3.57,0.66-4.75,0.77c-7.94,0.94-14.31,0.51-18.38,0c-5.79-0.72-8.84-1.82-10.76-2.68c-2.52-1.13-5.38-2.42-6.63-4.92
			c-1.8-3.57,1-6.97,1.52-7.61c4.18-5.08,13.03-5.47,13.9-5.5H94.98z"/>
	</g>
	<g id="snake_x5F_middle">
		<path class="st0" d="M55.98,378.94l10.76,5.37c-0.52,0.45-1.2,1.11-1.79,1.98c-0.2,0.29-3.45,5.22,0.09,9.52
			c1.88,2.28,4.9,3.45,6.72,4.15c1.2,0.46,2.27,0.77,3.05,0.96c1.83,0.13,4.73,0.26,8.25,0c6.91-0.51,12.3-2.22,18.29-4.15
			c3.97-1.28,4.08-1.53,8.61-2.94c3.34-1.04,6.35-1.98,10.04-2.75c4.64-0.97,8.65-1.81,13.81-1.53c3.05,0.16,10.04,0.54,15.24,4.47
			c0.72,0.54,3.64,2.86,4.75,6.58c0.43,1.45,1.3,5.53-1.88,9.52c-2.64,3.31-6.6,4.73-9.95,5.94c-7.01,2.53-13.84,2.74-18.2,2.56
			l-17.93,0.05v-4.97c0.87,0.01,2.18,0.01,3.77,0c12.25-0.1,19.08-0.2,25.73-2.75c2.85-1.09,5.78-2.25,6.99-4.67
			c1.29-2.57,0.37-6.04-2.69-7.67c-1.42-0.75-2.94-0.93-4.48-1.02c-8.43-0.53-15.83,1.28-18.56,1.98c-5.7,1.47-5.31,1.79-13.18,4.09
			c-6.72,1.97-10.29,3.01-15.06,3.84c-6.64,1.14-13.08,2.25-20.71,0.77c-2.77-0.54-9.91-1.93-14.7-6.78
			c-4.16-4.21-4.22-8.67-4.21-10.42c0.02-4.04,1.81-7.13,2.96-8.76L55.98,378.94z"/>
	</g>
	<g id="snake">
		<g>
			<path class="st0" d="M76.24,343.21c0.32-2.93,4.02-3.09,7.12-7.57c0.4-0.58,1.32-1.99,2.83-3.68c0.59-0.67,1.2-1.29,1.88-1.92
				c0,0,1.01-0.93,1.97-1.66c2.66-2.02,8.16-3.2,8.16-3.2c12.56-2.69,24.47-0.45,24.47-0.45c3.66,0.69,7.83,1.47,12.28,3.84
				c7.66,4.07,10.25,9.67,11.21,11.82c0.8,1.81,3.5,8.27-0.27,15.72c-2.08,4.11-5.32,6.93-7.44,8.5
				c-8.28,0.04-16.55,0.09-24.83,0.13c2.53-0.53,6.35-1.55,10.31-3.58c3.49-1.79,8.53-4.37,10.49-9.14c0,0,2.35-5.7-2.24-12.08
				c-1.1-1.52-2.51-2.62-2.51-2.62c-1.57-1.22-3.15-1.88-4.3-2.36c-1.48-0.61-2.53-1.03-4.12-1.28c-1.74-0.27-3.16-0.11-4.12,0
				c-1.15,0.13-2.88,0.33-4.57,1.21c-1.36,0.71-2.05,1.53-2.69,2.3c-0.38,0.46-0.64,0.85-0.84,1.2c-0.73,1.3-1.13,2.32-1.22,2.58
				c-1.22,3.5-6.6,7.68-7.98,8.76c-0.63,0.49-1.63,1.23-3.05,1.27c-0.1,0-1.77,0.03-2.69-0.89c-0.8-0.8-0.71-1.97,0.27-2.88
				c-0.97,0.45-2.43,1.47-3.94,2.94c-0.41,0.4-1.44,1.59-1.7,3.84c-1.19,3.04,3.4,5,3.23,5.62c-0.17,0.59-2.41-0.19-3.05-0.45
				c-0.45-0.18-1.92-0.83-2.6-2.11c-0.77-1.46-0.32-3.41-0.9-3.71c-0.05-0.02-0.08-0.03-0.1-0.03c-0.31,0.01-0.49,0.98-0.97,1.82
				c-1.13,1.95,0,3.44,0,3.77c0,0.02-0.01,0.04-0.02,0.05c-0.18,0.15-2.01-0.95-2.67-1.78c-1.26-1.6,0.26-4.18,2.06-5.75
				c2.32-2.02,6.21-3.31,8.79-4.92c0.19-0.12,0.87-0.56,1.43-1.28c0.23-0.29,0.93-1.2,0.63-1.41c-0.57-0.4-3.74,2.37-9.05,3.45
				c-1.82,0.37-4.56,0.44-7.17-0.19C76.35,346.64,76.09,344.55,76.24,343.21z"/>
		</g>
	</g>
</g>
</svg>
