<svg xmlns="http://www.w3.org/2000/svg" viewBox="0 0 110.16 119.12"><defs><style>.cls-1{fill:#08347d;}</style></defs><title>Ресурс 10</title><g id="Слой_2" data-name="Слой 2"><g id="Слой_1-2" data-name="Слой 1"><g id="Snake"><g id="Cup_bottom"><path class="cls-1" d="M22.41,118.16c1.36-.21,2.4-.76,2.6-1.46a1,1,0,0,0,0-.52H35.85c.76,0,7.53-.26,8-1.92a.71.71,0,0,0,0-.38H65.17a.7.7,0,0,0,0,.38c.47,1.66,7.08,1.9,7.8,1.92H83.73a.91.91,0,0,0,0,.52c.2.71,1.27,1.26,2.68,1.46v1h-64Z"/></g><g id="cup_middle"><polygon class="cls-1" points="51.16 82.88 51.16 108.1 56.94 108.1 56.94 80.58 51.16 82.88"/></g><g id="upper_cup"><path class="cls-1" d="M110.16,42.65a8.25,8.25,0,0,1,0,1.11,8.46,8.46,0,0,1-.23,1.11c0,.23-.16.48-.22.71-3,8.56-19.06,15.54-40.13,17.76h0a21.29,21.29,0,0,0-6.9,2.73,12.84,12.84,0,0,0-4.22,4.4c-2.78.91-5.5,1.78-8.23,2.69a10,10,0,0,0-.94-3,9.2,9.2,0,0,0-2.67-3.73,15.5,15.5,0,0,0-4.22-2.29,16.68,16.68,0,0,0-3.61-1,.28.28,0,0,0-.17,0,10.23,10.23,0,0,1-1.11-.16C21.23,60.84,8.45,55.85,3,49.58A10.55,10.55,0,0,1,0,42.65v-.44H110.11A1.21,1.21,0,0,1,110.16,42.65Z"/><path class="cls-1" d="M110.11,43.76V44a5.28,5.28,0,0,1-.23.91A8.46,8.46,0,0,0,110.11,43.76Z"/><path class="cls-1" d="M110.16,42.21v.44a1.21,1.21,0,0,0,0-.44Z"/></g><g id="snake_bottom"><path class="cls-1" d="M48.94,92V96.5a12.74,12.74,0,0,0-2,0c-3.18.21-7.95,1.63-8.87,4.47-.78,2.38,1.57,4.47,2.15,5,3.35,3,8.72,3,9.5,2.94a70.33,70.33,0,0,0,14.07,0A63.86,63.86,0,0,0,82.92,104l3.14-.83a6,6,0,0,1-.9,1.79c-.76,1-1.87,1.91-7.62,4.35A44.81,44.81,0,0,1,70.19,112a34.8,34.8,0,0,1-4.75.77,76,76,0,0,1-18.38,0,36.07,36.07,0,0,1-10.76-2.68c-2.52-1.14-5.37-2.42-6.63-4.93-1.8-3.57,1-7,1.52-7.6,4.18-5.08,13-5.47,13.9-5.5Z"/></g><g id="snake_middle"><path class="cls-1" d="M10,55.08,20.7,60.45a11,11,0,0,0-1.79,2c-.2.29-3.45,5.22.09,9.52,1.88,2.28,4.9,3.45,6.72,4.16a25.3,25.3,0,0,0,3.05,1,55.46,55.46,0,0,0,8.25,0c6.91-.51,12.3-2.21,18.29-4.15,4-1.28,4.07-1.53,8.6-2.94a104,104,0,0,1,10-2.75c4.64-1,8.65-1.81,13.81-1.53,3,.16,10,.53,15.24,4.47a13.57,13.57,0,0,1,4.75,6.59,10.31,10.31,0,0,1-1.88,9.52c-2.64,3.3-6.6,4.73-10,5.94a48.16,48.16,0,0,1-18.2,2.56l-17.93,0v-5c.87,0,2.18,0,3.77,0,12.24-.1,19.08-.2,25.72-2.75,2.85-1.09,5.79-2.26,7-4.67a5.83,5.83,0,0,0-2.69-7.67,10.79,10.79,0,0,0-4.49-1,60.65,60.65,0,0,0-18.55,2c-5.7,1.47-5.31,1.79-13.18,4.09a126,126,0,0,1-15.06,3.84c-6.64,1.14-13.08,2.25-20.71.77-2.77-.55-9.91-1.94-14.7-6.78A14,14,0,0,1,2.69,67.22a15.54,15.54,0,0,1,2.95-8.76Z"/></g><g id="snake-2" data-name="snake"><path class="cls-1" d="M30.21,19.35c.32-2.93,4-3.1,7.12-7.57A33.15,33.15,0,0,1,40.16,8.1,26.09,26.09,0,0,1,42,6.18s1-.93,2-1.66c2.66-2,8.16-3.2,8.16-3.2A69.57,69.57,0,0,1,76.64.88,40.48,40.48,0,0,1,88.93,4.71a23.73,23.73,0,0,1,11.2,11.83,18,18,0,0,1-.27,15.72,24.91,24.91,0,0,1-7.44,8.5l-24.83.13A41.4,41.4,0,0,0,77.9,37.31c3.48-1.79,8.53-4.37,10.49-9.14,0,0,2.34-5.7-2.24-12.08a14.21,14.21,0,0,0-2.51-2.62,17.76,17.76,0,0,0-4.31-2.37,16.42,16.42,0,0,0-4.12-1.28,15.06,15.06,0,0,0-4.12,0A12.68,12.68,0,0,0,66.51,11a8.24,8.24,0,0,0-2.69,2.3,8.41,8.41,0,0,0-.84,1.2,17.81,17.81,0,0,0-1.22,2.57c-1.21,3.5-6.59,7.68-8,8.76a5.12,5.12,0,0,1-3.05,1.27,4.13,4.13,0,0,1-2.68-.89,1.91,1.91,0,0,1,.27-2.88,16.72,16.72,0,0,0-4,2.94,6.33,6.33,0,0,0-1.7,3.84c-1.19,3,3.4,5,3.22,5.62s-2.4-.19-3-.44a5.17,5.17,0,0,1-2.6-2.11c-.78-1.47-.32-3.41-.9-3.71l-.1,0c-.32,0-.49,1-1,1.82a4,4,0,0,0,0,3.77s0,0,0,.06a6.18,6.18,0,0,1-2.66-1.78c-1.26-1.6.25-4.19,2.06-5.76,2.32-2,6.21-3.3,8.78-4.92a5.52,5.52,0,0,0,1.44-1.28c.22-.29.92-1.19.62-1.4-.56-.4-3.74,2.37-9.05,3.45a17.76,17.76,0,0,1-7.17-.19C30.31,22.78,30.06,20.68,30.21,19.35Z"/></g></g></g></g></svg>