<svg xmlns="http://www.w3.org/2000/svg" xmlns:xlink="http://www.w3.org/1999/xlink" width="32px" height="40px">
                <path fill-rule="evenodd"  fill="rgb(255, 255, 255)" d="M28.365,4.711 L25.023,4.711 C24.677,4.711 24.397,4.422 24.397,4.068 L24.397,2.998 L7.603,2.998 L7.603,4.068 C7.603,4.422 7.323,4.711 6.976,4.711 L3.634,4.711 C3.288,4.711 3.008,4.422 3.008,4.068 L3.008,0.642 C3.008,0.287 3.288,-0.001 3.634,-0.001 L6.976,-0.001 C7.323,-0.001 7.603,0.287 7.603,0.642 L7.603,1.712 L24.397,1.712 L24.397,0.642 C24.397,0.287 24.677,-0.001 25.023,-0.001 L28.365,-0.001 C28.712,-0.001 28.992,0.287 28.992,0.642 L28.992,4.068 C28.992,4.422 28.711,4.711 28.365,4.711 ZM6.350,1.283 L4.261,1.283 L4.261,3.425 L6.350,3.425 L6.350,1.283 ZM27.739,1.283 L25.650,1.283 L25.650,3.425 L27.739,3.425 L27.739,1.283 ZM16.000,3.083 C24.822,3.083 32.000,10.441 32.000,19.485 C32.000,19.841 31.719,20.128 31.373,20.128 C31.027,20.128 30.746,19.841 30.746,19.485 C30.746,11.150 24.131,4.367 16.000,4.367 C7.869,4.367 1.253,11.150 1.253,19.485 C1.253,19.841 0.973,20.128 0.627,20.128 C0.280,20.128 -0.000,19.841 0.000,19.485 C0.000,10.441 7.178,3.083 16.000,3.083 ZM10.092,15.772 L15.439,4.809 C15.546,4.591 15.763,4.453 16.000,4.453 C16.237,4.453 16.454,4.590 16.560,4.809 L21.907,15.772 C21.966,15.891 21.986,16.026 21.966,16.158 L20.295,27.122 C20.286,27.185 20.267,27.244 20.241,27.300 L21.114,39.309 C21.128,39.488 21.067,39.663 20.949,39.794 C20.830,39.924 20.664,39.999 20.490,39.999 L11.268,39.999 C11.093,39.999 10.925,39.923 10.806,39.791 C10.687,39.658 10.629,39.480 10.644,39.301 L11.693,27.044 L10.033,16.158 C10.013,16.027 10.034,15.891 10.092,15.772 ZM16.000,17.387 C15.055,17.387 14.287,18.175 14.287,19.143 C14.287,20.111 15.055,20.899 16.000,20.899 C16.944,20.899 17.713,20.111 17.713,19.143 C17.713,18.175 16.944,17.387 16.000,17.387 ZM19.814,38.715 L19.011,27.665 L12.898,27.665 L11.952,38.715 L19.814,38.715 ZM12.860,26.381 L19.140,26.381 L20.697,16.163 L16.627,7.817 L16.627,16.171 C17.962,16.466 18.966,17.687 18.966,19.143 C18.966,20.819 17.635,22.183 16.000,22.183 C14.364,22.183 13.034,20.819 13.034,19.143 C13.034,17.687 14.038,16.467 15.373,16.172 L15.373,7.817 L11.303,16.163 L12.860,26.381 Z"/>
                </svg>