<svg xmlns="http://www.w3.org/2000/svg" xmlns:xlink="http://www.w3.org/1999/xlink" width="48px" height="40px">
                <path class="header__logo--white"fill-rule="evenodd"  fill="rgb(255, 255, 255)" d="M48.000,6.665 L44.690,6.665 L44.690,3.333 L41.379,3.333 L41.379,-0.001 L6.621,-0.001 L6.621,3.333 L3.310,3.333 L3.310,6.665 L-0.000,6.665 L-0.000,33.333 L3.310,33.333 L3.310,36.666 L6.621,36.666 L6.621,39.999 L41.379,39.999 L41.379,36.666 L44.690,36.666 L44.690,33.333 L48.000,33.333 L48.000,6.665 ZM1.655,31.666 L1.655,8.332 L3.310,8.332 L3.310,31.666 L1.655,31.666 ZM4.965,34.999 L4.965,33.333 L4.965,6.665 L4.965,4.999 L6.621,4.999 L6.621,34.999 L4.965,34.999 ZM39.724,38.333 L8.276,38.333 L8.276,36.666 L8.276,3.333 L8.276,1.666 L39.724,1.666 L39.724,3.333 L39.724,36.666 L39.724,38.333 ZM43.034,34.999 L41.379,34.999 L41.379,4.999 L43.034,4.999 L43.034,6.665 L43.034,33.333 L43.034,34.999 ZM46.345,31.666 L44.690,31.666 L44.690,8.332 L46.345,8.332 L46.345,31.666 Z"/>
                </svg>