<svg xmlns="http://www.w3.org/2000/svg" xmlns:xlink="http://www.w3.org/1999/xlink" width="50px" height="45px">
                <path fill-rule="evenodd"  fill="rgb(255, 255, 255)" d="M50.000,22.500 C50.000,21.430 49.412,20.469 48.467,19.991 L44.744,18.108 L48.467,16.225 L48.467,16.225 C49.413,15.747 50.000,14.786 50.000,13.717 C50.000,12.648 49.412,11.687 48.467,11.208 L27.450,0.581 C25.916,-0.195 24.084,-0.195 22.549,0.581 L1.533,11.209 C0.587,11.687 0.000,12.648 0.000,13.717 C0.000,14.786 0.587,15.747 1.533,16.225 L5.256,18.108 L1.532,19.991 C0.587,20.469 0.000,21.430 0.000,22.500 C0.000,23.568 0.587,24.529 1.533,25.008 L5.256,26.890 L1.533,28.773 C0.588,29.250 0.001,30.211 0.000,31.280 C-0.000,32.349 0.587,33.311 1.533,33.790 L22.550,44.418 C23.317,44.805 24.158,44.999 25.000,44.999 C25.841,44.999 26.683,44.805 27.450,44.418 L48.467,33.790 C49.413,33.311 50.000,32.349 50.000,31.280 C49.999,30.211 49.412,29.250 48.467,28.773 L44.744,26.890 L48.467,25.008 C49.412,24.529 50.000,23.568 50.000,22.500 ZM2.561,14.146 C2.333,14.031 2.299,13.828 2.299,13.717 C2.299,13.607 2.333,13.403 2.561,13.288 L23.577,2.660 C24.023,2.435 24.511,2.323 25.000,2.323 C25.489,2.323 25.977,2.435 26.423,2.660 L47.439,13.288 C47.667,13.403 47.701,13.607 47.701,13.717 C47.701,13.828 47.667,14.031 47.439,14.146 L26.423,24.774 C25.532,25.224 24.468,25.224 23.577,24.774 L2.561,14.146 ZM47.439,30.853 C47.667,30.967 47.701,31.170 47.701,31.281 C47.701,31.392 47.667,31.595 47.439,31.710 L26.423,42.338 C25.532,42.788 24.468,42.789 23.577,42.338 L2.561,31.711 C2.333,31.595 2.299,31.391 2.299,31.281 C2.299,31.170 2.333,30.967 2.561,30.852 L7.826,28.190 L22.550,35.636 C23.317,36.024 24.158,36.217 25.000,36.217 C25.841,36.217 26.683,36.023 27.450,35.635 L42.174,28.190 L47.439,30.853 ZM47.439,22.928 L26.423,33.556 C25.532,34.006 24.468,34.006 23.577,33.556 L2.561,22.928 C2.333,22.813 2.299,22.610 2.299,22.500 C2.299,22.388 2.333,22.186 2.561,22.070 L7.826,19.408 L22.550,26.854 C23.317,27.241 24.158,27.435 25.000,27.435 C25.841,27.435 26.683,27.241 27.450,26.854 L42.174,19.408 L47.438,22.070 C47.667,22.186 47.701,22.388 47.701,22.500 C47.701,22.610 47.667,22.813 47.439,22.928 Z"/>
                </svg>